<?xml version="1.0" encoding="UTF-8" standalone="no"?>
<svg width="44" height="44" viewBox="0 0 44 44" xmlns="http://www.w3.org/2000/svg">
   <rect style="fill:#a43606" width="20" height="20" x="0" y="0" ry="2" />
   <rect style="fill:#a47606" width="20" height="20" x="24" y="0" ry="2" />
   <rect style="fill:#a4066f" width="20" height="20" x="0" y="24" ry="2" />
   <rect style="fill:#7207ca" width="20" height="20" x="24" y="24" ry="2" />
   <path aria-label="2" style="fill:#ffffff;fill-opacity:0.62"
      d="M 6.182934,15.142473 V 13.52398 l 3.910165,-3.344409 q 0.472657,-0.415365 0.845054,-0.780601 0.372397,-0.365235 0.58008,-0.766277 0.214844,-0.401043 0.214844,-0.895185 0,-0.508464 -0.214844,-0.880861 Q 11.31055,6.477089 10.92383,6.269406 10.544272,6.061723 10.014323,6.061723 q -0.572918,0 -0.988284,0.250652 Q 8.617835,6.563026 8.388668,7.028522 8.166662,7.486857 8.166662,8.138551 H 6.139965 q 0,-1.160159 0.472657,-2.019536 Q 7.092441,5.252477 7.95898,4.779819 8.825518,4.3 10.014323,4.3 q 1.095706,0 1.947921,0.408204 0.852216,0.408205 1.332034,1.160159 0.486981,0.744794 0.486981,1.754562 0,0.744793 -0.279298,1.36068 -0.279297,0.615887 -0.809247,1.195966 -0.522787,0.572918 -1.267581,1.210289 l -2.263026,1.969406 v 0.01432 h 4.669282 v 1.768884 z" />
   <path aria-label="0" style="fill:#ffffff;fill-opacity:0.62"
      d="m 34,15.314349 q -1.339196,0 -2.313157,-0.666018 -0.966799,-0.673178 -1.489587,-1.904952 -0.515626,-1.231773 -0.515626,-2.929043 0,-1.704431 0.515626,-2.936205 Q 30.720044,5.646358 31.686843,4.973179 32.653642,4.3 34,4.3 q 1.339195,0 2.305994,0.673179 0.973961,0.666017 1.489587,1.904952 0.522788,1.231774 0.522788,2.936205 0,1.69727 -0.522788,2.929043 -0.515626,1.231774 -1.489587,1.904952 Q 35.339195,15.314349 34,15.314349 Z m 0,-1.761723 q 0.694663,0 1.195966,-0.451173 0.501303,-0.451173 0.773439,-1.289066 0.272136,-0.837892 0.272136,-1.998051 0,-1.16732 -0.272136,-2.005213 Q 35.697269,6.97123 35.195966,6.520058 34.694663,6.061723 34,6.061723 q -0.694664,0 -1.203128,0.458335 -0.501303,0.451172 -0.77344,1.289065 -0.264974,0.837893 -0.264974,2.005213 0,1.160159 0.264974,1.998051 0.272137,0.837893 0.77344,1.289066 Q 33.305336,13.552626 34,13.552626 Z" />
   <path aria-label="4" style="fill:#ffffff;fill-opacity:0.62"
      d="m 5.599274,36.843638 v -1.704431 l 4.697927,-6.667333 h 1.382165 v 2.105473 h -0.766278 l -3.186856,4.540375 v 0.01432 h 6.667333 v 1.711593 z m 5.328137,2.298833 v -2.814459 -0.766278 -7.08986 h 2.069666 v 10.670597 z" />
   <path aria-label="8" style="fill:#ffffff;fill-opacity:0.62"
      d="m 33.99284,39.314347 q -1.203128,0 -2.119797,-0.379558 -0.909507,-0.38672 -1.417972,-1.074222 -0.508464,-0.687501 -0.508464,-1.582686 0,-0.73047 0.322266,-1.296227 0.322266,-0.565756 0.902346,-0.930991 0.587241,-0.365235 1.353519,-0.458335 v 0.0072 q -1.009768,-0.157591 -1.618494,-0.7878 -0.601564,-0.637372 -0.601564,-1.618494 0,-0.845054 0.465496,-1.496748 0.472658,-0.658856 1.303389,-1.024091 0.837892,-0.372397 1.919275,-0.372397 1.102867,0 1.933598,0.365236 0.830731,0.365235 1.296227,1.016929 0.465496,0.651694 0.465496,1.511071 0,0.973961 -0.601564,1.611332 -0.601564,0.63021 -1.611332,0.794924 v -0.0072 q 0.766278,0.0931 1.346358,0.458335 0.580079,0.365235 0.902345,0.938153 0.329428,0.565756 0.329428,1.289065 0,0.895185 -0.515626,1.582686 -0.508465,0.687502 -1.425133,1.074222 -0.909508,0.379558 -2.119797,0.379558 z m 0,-1.604171 q 0.551434,0 0.966799,-0.193359 0.415366,-0.200522 0.644533,-0.558595 0.236328,-0.365236 0.236328,-0.830732 0,-0.48698 -0.236328,-0.852215 -0.236329,-0.372397 -0.651694,-0.58008 -0.415366,-0.214844 -0.959638,-0.214844 -0.537111,0 -0.952476,0.214844 -0.415366,0.207683 -0.651694,0.58008 -0.236329,0.365235 -0.236329,0.852215 0,0.472658 0.229167,0.830732 0.236329,0.358073 0.651694,0.558595 0.415366,0.193359 0.959638,0.193359 z m 0,-4.862641 q 0.479819,0 0.837893,-0.179037 0.358073,-0.179037 0.551433,-0.508465 0.200521,-0.336589 0.200521,-0.773439 0,-0.43685 -0.200521,-0.759116 -0.19336,-0.329428 -0.551433,-0.508465 -0.350913,-0.179037 -0.837893,-0.179037 -0.472657,0 -0.830731,0.179037 -0.358074,0.179037 -0.558595,0.508465 -0.19336,0.322266 -0.19336,0.759116 0,0.43685 0.19336,0.766278 0.200521,0.329428 0.558595,0.515626 0.358074,0.179037 0.830731,0.179037 z" />
</svg>