<?xml version="1.0" encoding="UTF-8" standalone="no"?>
<!-- Created with Inkscape (http://www.inkscape.org/) -->

<svg
   width="64"
   height="64"
   viewBox="0 0 64 64"
   version="1.1"
   id="svg1"
   inkscape:version="1.4.2 (ebf0e940d0, 2025-05-08)"
   sodipodi:docname="logo-vector.svg"
   xmlns:inkscape="http://www.inkscape.org/namespaces/inkscape"
   xmlns:sodipodi="http://sodipodi.sourceforge.net/DTD/sodipodi-0.dtd"
   xmlns="http://www.w3.org/2000/svg"
   xmlns:svg="http://www.w3.org/2000/svg">
  <sodipodi:namedview
     id="namedview1"
     pagecolor="#505050"
     bordercolor="#ffffff"
     borderopacity="1"
     inkscape:showpageshadow="0"
     inkscape:pageopacity="0"
     inkscape:pagecheckerboard="1"
     inkscape:deskcolor="#505050"
     inkscape:document-units="px"
     inkscape:zoom="9.2221485"
     inkscape:cx="9.8133314"
     inkscape:cy="35.295463"
     inkscape:window-width="2752"
     inkscape:window-height="1124"
     inkscape:window-x="0"
     inkscape:window-y="0"
     inkscape:window-maximized="1"
     inkscape:current-layer="layer1" />
  <defs
     id="defs1">
    <rect
       x="34"
       y="34"
       width="20"
       height="20"
       id="rect6" />
    <rect
       x="10"
       y="34"
       width="20"
       height="20"
       id="rect5" />
    <rect
       x="34"
       y="10"
       width="20"
       height="20"
       id="rect4" />
    <rect
       x="10"
       y="10"
       width="20"
       height="17.77643"
       id="rect3" />
    <rect
       x="10"
       y="10"
       width="20"
       height="17.77643"
       id="rect3-1" />
  </defs>
  <g
     inkscape:label="Ebene 1"
     inkscape:groupmode="layer"
     id="layer1">
    <rect
       style="fill:#540354;fill-opacity:1"
       id="rect1"
       width="64"
       height="64"
       x="0"
       y="0" />
    <rect
       style="fill:#a43606;fill-opacity:1;stroke-width:1.00157;stroke-dasharray:none"
       id="rect2"
       width="20"
       height="20"
       x="10"
       y="10"
       inkscape:label="sq1"
       ry="2" />
    <rect
       style="fill:#a47606;fill-opacity:1;stroke-width:1.00157;stroke-dasharray:none"
       id="rect2-3"
       width="20"
       height="20"
       x="34"
       y="10"
       inkscape:label="sq1"
       ry="2" />
    <rect
       style="fill:#a4066f;fill-opacity:1;stroke-width:1.00157;stroke-dasharray:none"
       id="rect2-1"
       width="20"
       height="20"
       x="10"
       y="34"
       inkscape:label="sq1"
       ry="2" />
    <rect
       style="fill:#7207ca;fill-opacity:1;stroke-width:1.00157;stroke-dasharray:none"
       id="rect2-3-2"
       width="20"
       height="20"
       x="34"
       y="34"
       inkscape:label="sq1"
       ry="2" />
    <path
       style="font-weight:bold;font-size:14.6667px;font-family:'Adwaita Sans';-inkscape-font-specification:'Adwaita Sans';text-align:center;text-anchor:middle;white-space:pre;fill:#ffffff;fill-opacity:0.615824;stroke-width:1.00157"
       d="m 16.182934,23.576168 v -1.618493 l 3.910165,-3.344409 q 0.472658,-0.415366 0.845054,-0.780601 0.372397,-0.365235 0.58008,-0.766278 0.214844,-0.401042 0.214844,-0.895184 0,-0.508465 -0.214844,-0.880861 -0.207683,-0.379559 -0.594403,-0.587241 -0.379558,-0.207683 -0.909507,-0.207683 -0.572918,0 -0.988284,0.250651 -0.408204,0.250652 -0.637371,0.716148 -0.222006,0.458334 -0.222006,1.110029 h -2.026697 q 0,-1.160159 0.472657,-2.019536 0.479819,-0.866539 1.346358,-1.339196 0.866538,-0.479819 2.055343,-0.479819 1.095706,0 1.947921,0.408204 0.852216,0.408204 1.332034,1.160159 0.486981,0.744793 0.486981,1.754561 0,0.744794 -0.279298,1.360681 -0.279297,0.615886 -0.809246,1.195966 -0.522788,0.572918 -1.267582,1.210289 l -2.263026,1.969406 v 0.01432 h 4.669282 v 1.768884 z"
       id="text2"
       transform="translate(0,1.566305)"
       aria-label="2" />
    <path
       style="font-weight:bold;font-size:14.6667px;font-family:'Adwaita Sans';-inkscape-font-specification:'Adwaita Sans';text-align:center;text-anchor:middle;white-space:pre;fill:#ffffff;fill-opacity:0.615824;stroke-width:1.00157"
       d="m 44,23.748043 q -1.339196,0 -2.313156,-0.666017 -0.966799,-0.673179 -1.489587,-1.904952 -0.515626,-1.231774 -0.515626,-2.929043 0,-1.704431 0.515626,-2.936205 0.522788,-1.231774 1.489587,-1.904952 Q 42.653643,12.733695 44,12.733695 q 1.339196,0 2.305995,0.673179 0.97396,0.666017 1.489587,1.904952 0.522787,1.231774 0.522787,2.936205 0,1.697269 -0.522787,2.929043 -0.515627,1.231773 -1.489587,1.904952 Q 45.339196,23.748043 44,23.748043 Z m 0,-1.761723 q 0.694663,0 1.195966,-0.451172 0.501304,-0.451173 0.77344,-1.289066 0.272136,-0.837892 0.272136,-1.998051 0,-1.167321 -0.272136,-2.005213 Q 45.69727,15.404925 45.195966,14.953752 44.694663,14.495418 44,14.495418 q -0.694663,0 -1.203128,0.458334 -0.501303,0.451173 -0.773439,1.289066 -0.264975,0.837892 -0.264975,2.005213 0,1.160159 0.264975,1.998051 0.272136,0.837893 0.773439,1.289066 Q 43.305337,21.98632 44,21.98632 Z"
       id="text3"
       transform="translate(0,1.566305)"
       aria-label="0" />
    <path
       style="font-weight:bold;font-size:14.6667px;font-family:'Adwaita Sans';-inkscape-font-specification:'Adwaita Sans';text-align:center;text-anchor:middle;white-space:pre;fill:#ffffff;fill-opacity:0.615824;stroke-width:1.00157"
       d="m 15.599274,45.277334 v -1.704431 l 4.697927,-6.667333 h 1.382165 v 2.105474 h -0.766278 l -3.186856,4.540375 v 0.01432 h 6.667333 v 1.711592 z m 5.328137,2.298834 v -2.81446 -0.766278 -7.08986 h 2.069666 v 10.670598 z"
       id="text4"
       transform="translate(0,1.3944296)"
       aria-label="4" />
    <path
       style="font-weight:bold;font-size:14.6667px;font-family:'Adwaita Sans';-inkscape-font-specification:'Adwaita Sans';text-align:center;text-anchor:middle;white-space:pre;fill:#ffffff;fill-opacity:0.615824;stroke-width:1.00157"
       d="m 43.992839,47.748043 q -1.203128,0 -2.119797,-0.379558 -0.909507,-0.38672 -1.417972,-1.074221 -0.508465,-0.687502 -0.508465,-1.582686 0,-0.73047 0.322267,-1.296227 0.322266,-0.565756 0.902345,-0.930992 0.587241,-0.365235 1.353519,-0.458334 v 0.0072 q -1.009768,-0.157552 -1.618493,-0.787762 -0.601564,-0.637371 -0.601564,-1.618493 0,-0.845054 0.465496,-1.496748 0.472657,-0.658856 1.303388,-1.024091 0.837893,-0.372397 1.919276,-0.372397 1.102867,0 1.933598,0.365235 0.830731,0.365235 1.296227,1.01693 0.465496,0.651694 0.465496,1.511071 0,0.97396 -0.601564,1.611332 -0.601564,0.630209 -1.611332,0.794923 v -0.0072 q 0.766278,0.0931 1.346357,0.458334 0.58008,0.365236 0.902346,0.938153 0.329428,0.565757 0.329428,1.289066 0,0.895184 -0.515626,1.582686 -0.508465,0.687501 -1.425134,1.074221 -0.909507,0.379558 -2.119796,0.379558 z m 0,-1.60417 q 0.551433,0 0.966799,-0.19336 0.415365,-0.200521 0.644532,-0.558595 0.236329,-0.365235 0.236329,-0.830731 0,-0.48698 -0.236329,-0.852216 -0.236328,-0.372396 -0.651694,-0.580079 -0.415365,-0.214844 -0.959637,-0.214844 -0.537111,0 -0.952477,0.214844 -0.415365,0.207683 -0.651694,0.580079 -0.236328,0.365236 -0.236328,0.852216 0,0.472657 0.229167,0.830731 0.236328,0.358074 0.651694,0.558595 0.415365,0.19336 0.959638,0.19336 z m 0,-4.862641 q 0.479818,0 0.837892,-0.179037 0.358074,-0.179037 0.551434,-0.508465 0.200521,-0.336589 0.200521,-0.773439 0,-0.43685 -0.200521,-0.759117 -0.19336,-0.329428 -0.551434,-0.508464 -0.350912,-0.179037 -0.837892,-0.179037 -0.472658,0 -0.830732,0.179037 -0.358073,0.179036 -0.558595,0.508464 -0.193359,0.322267 -0.193359,0.759117 0,0.43685 0.193359,0.766277 0.200522,0.329428 0.558595,0.515627 0.358074,0.179037 0.830732,0.179037 z"
       id="text5"
       transform="translate(0,1.566305)"
       aria-label="8" />
  </g>
</svg>
